# xmcd CD database file
#
# Track frame offsets:
#	150
#	14412
#	30617
#	39050
#	51675
#	60940
#	79950
#	93347
#	106025
#	117445
#	129840
#	143977
#
# Disc length: 2188 seconds
#
# Revision: 0
# Processed by: cddbd v1.5.1PL0 Copyright (c) Steve Scherf et al.
# Submitted via: CDex 1.50beta9
#
DISCID=95088a0c
DTITLE=SEAN WILSON - COUNTRY AND IRISH VOL 2
DYEAR=1900
DGENRE=Country
TTITLE0=Twenty-One Acres Of land
TTITLE1=Don't Trade Your Love For Gold
TTITLE2=The Blackboard Of My heart
TTITLE3=Seet Moneymore
TTITLE4=Time Has A Way
TTITLE5=The Moyola River
TTITLE6=I'm So Afraid Of Losing You Again
TTITLE7=December Day
TTITLE8=I Wonder Could I Live There Anymore
TTITLE9=Lone Gets Older
TTITLE10=Sing A Song For Jesus
TTITLE11=Tipperary On My Mind
EXTD=
EXTT0=
EXTT1=
EXTT2=
EXTT3=
EXTT4=
EXTT5=
EXTT6=
EXTT7=
EXTT8=
EXTT9=
EXTT10=
EXTT11=
PLAYORDER=
